<svg xmlns="http://www.w3.org/2000/svg" viewBox="0 0 300 53"><title>map-legend</title><g id="Work_area" data-name="Work area"><path d="M24.33,7.71h-1.9V6.26h5.73V7.71h-1.9v6H24.33Z" fill="#231f20"/><path d="M30.72,13.9a2.68,2.68,0,0,1-2.81-2.81,2.81,2.81,0,1,1,5.63,0A2.68,2.68,0,0,1,30.72,13.9Zm0-1.41c.51,0,1-.35,1-1.42s-.48-1.47-1-1.47-1,.41-1,1.47S30.23,12.49,30.72,12.49Z" fill="#231f20"/><path d="M34.37,11.92V9.63H33.8V8.36h.57V6.67h1.81V8.36h1V9.63h-1V11.8c0,.51.3.65.61.65a1.3,1.3,0,0,0,.41-.07v1.35a2.9,2.9,0,0,1-.82.09A1.76,1.76,0,0,1,34.37,11.92Z" fill="#231f20"/><path d="M40.53,13.29a1.49,1.49,0,0,1-1.22.57,1.59,1.59,0,0,1-1.65-1.72,1.85,1.85,0,0,1,2.87-1.43v-.24c0-.71-.48-.88-1-.88a2.83,2.83,0,0,0-1.2.29l-.36-1.28a4.22,4.22,0,0,1,2-.42c1.8,0,2.45.85,2.45,2.2v3.36H40.53Zm0-.77v-.92a1,1,0,0,0-.57-.18.57.57,0,0,0-.6.64.57.57,0,0,0,.6.64A1,1,0,0,0,40.53,12.53Z" fill="#231f20"/><path d="M43.27,6h1.81v7.79H43.27Z" fill="#231f20"/><path d="M50.21,15.77c-1.68,0-2.6-.4-2.6-1.22,0-.44.39-.75.85-.95a1.06,1.06,0,0,1-.44-.87,1.31,1.31,0,0,1,.81-1.23A1.64,1.64,0,0,1,48,10.06a2,2,0,0,1,2.23-1.87,2.4,2.4,0,0,1,1.42.42,2.28,2.28,0,0,1,1.47-.41V9.44a4,4,0,0,0-.83,0,1.36,1.36,0,0,1,.12.61c0,1.14-1,1.76-2.18,1.76a3.2,3.2,0,0,1-.63-.06.35.35,0,0,0-.15.28c0,.17.13.26.41.26h1.51a1.55,1.55,0,0,1,1.75,1.56C53.11,15.18,52,15.77,50.21,15.77Zm1.21-1.56c0-.2-.11-.41-.54-.41H49.25a.47.47,0,0,0-.22.39c0,.3.33.49,1.14.49C51.15,14.68,51.42,14.5,51.42,14.21ZM50.2,10.81c.3,0,.61-.16.61-.76s-.31-.79-.61-.79-.61.2-.62.79S49.9,10.81,50.2,10.81Z" fill="#231f20"/><path d="M56.88,13.15a1.68,1.68,0,0,1-1.46.77A1.72,1.72,0,0,1,53.65,12V8.36h1.8v3.42c0,.51.2.71.67.71a.94.94,0,0,0,.76-.39V8.36h1.81v5.39H56.88Z" fill="#231f20"/><path d="M62.39,13.84c-1.67,0-3-.8-3-2.86a2.63,2.63,0,0,1,2.7-2.8,2.27,2.27,0,0,1,2.39,2.55v.76H61.21c.13.64.56.94,1.44.94A3.53,3.53,0,0,0,64,12.12l.27,1.29A3.86,3.86,0,0,1,62.39,13.84ZM61.2,10.39h1.55c0-.59-.24-.92-.72-.92S61.28,9.84,61.2,10.39Z" fill="#231f20"/><path d="M67.12,9.51c-.37,0-.66.08-.66.35s.89.34,1.64.71A1.44,1.44,0,0,1,68.94,12c0,1.22-.91,1.86-2.26,1.86a3.73,3.73,0,0,1-1.9-.4l.36-1.26a3.08,3.08,0,0,0,1.38.35c.52,0,.74-.16.74-.39,0-.42-1.15-.32-1.84-.87A1.53,1.53,0,0,1,64.88,10c0-1.2.86-1.79,2.14-1.79a4.18,4.18,0,0,1,1.79.34l-.34,1.23A3.36,3.36,0,0,0,67.12,9.51Z" fill="#231f20"/><path d="M69.8,11.92V9.63h-.57V8.36h.57V6.67h1.81V8.36h1V9.63h-1V11.8c0,.51.3.65.61.65a1.3,1.3,0,0,0,.41-.07v1.35a2.9,2.9,0,0,1-.82.09A1.76,1.76,0,0,1,69.8,11.92Z" fill="#231f20"/><path d="M77.93,13.29a1.49,1.49,0,0,1-1.22.57,1.59,1.59,0,0,1-1.65-1.72,1.85,1.85,0,0,1,2.87-1.43v-.24c0-.71-.48-.88-1-.88a2.83,2.83,0,0,0-1.2.29l-.36-1.28a4.22,4.22,0,0,1,2-.42c1.8,0,2.45.85,2.45,2.2v3.36H77.93Zm0-.77v-.92a1,1,0,0,0-.57-.18.57.57,0,0,0-.6.64.57.57,0,0,0,.6.64A1,1,0,0,0,77.93,12.53Z" fill="#231f20"/><path d="M80.63,13.75V8.36h1.81v1a2.25,2.25,0,0,1,1.77-1.09v1.79a2.3,2.3,0,0,0-1.77.44v3.24Z" fill="#231f20"/><path d="M84.82,13.75V8.36h1.81v1A2.25,2.25,0,0,1,88.4,8.28v1.79a2.3,2.3,0,0,0-1.77.44v3.24Z" fill="#231f20"/><path d="M89.92,6a1,1,0,1,1,0,1.91,1,1,0,1,1,0-1.91ZM89,8.36h1.81v5.39H89Z" fill="#231f20"/><path d="M91.28,8.36h1.84l1,2.87,1-2.87h1.62L94.73,13.8H93.36Z" fill="#231f20"/><path d="M99.77,13.29a1.49,1.49,0,0,1-1.22.57,1.59,1.59,0,0,1-1.65-1.72,1.85,1.85,0,0,1,2.87-1.43v-.24c0-.71-.48-.88-1-.88a2.83,2.83,0,0,0-1.2.29l-.36-1.28a4.22,4.22,0,0,1,2-.42c1.8,0,2.45.85,2.45,2.2v3.36H99.77Zm0-.77v-.92a1,1,0,0,0-.57-.18.57.57,0,0,0-.6.64.57.57,0,0,0,.6.64A1,1,0,0,0,99.77,12.53Z" fill="#231f20"/><path d="M102.51,6h1.81v7.79h-1.81Z" fill="#231f20"/><path d="M107.31,9.51c-.37,0-.66.08-.66.35s.89.34,1.64.71a1.44,1.44,0,0,1,.84,1.45c0,1.22-.91,1.86-2.26,1.86a3.73,3.73,0,0,1-1.9-.4l.36-1.26a3.08,3.08,0,0,0,1.38.35c.52,0,.74-.16.74-.39,0-.42-1.15-.32-1.84-.87a1.53,1.53,0,0,1-.54-1.27c0-1.2.86-1.79,2.14-1.79a4.18,4.18,0,0,1,1.79.34l-.34,1.23A3.36,3.36,0,0,0,107.31,9.51Z" fill="#231f20"/><path d="M113.59,13.18v.57h-1.81V6h1.81V8.87a2,2,0,0,1,1.48-.68c1.32,0,2.28.89,2.28,2.81s-1,2.88-2.31,2.88A1.72,1.72,0,0,1,113.59,13.18ZM115.52,11c0-1.07-.56-1.39-1-1.39a1.13,1.13,0,0,0-.9.37v2.13a1.19,1.19,0,0,0,.9.35C115,12.46,115.52,12.07,115.52,11Z" fill="#231f20"/><path d="M119.25,13.24l-1.93-4.88h1.85l1,2.64,1.06-2.64h1.65l-2.93,7.29h-1.64Z" fill="#231f20"/><path d="M125.06,13l2.22-3.36h-2.07V8.36h4.16V9.2l-2.24,3.38h2.23v1.17h-4.3Z" fill="#231f20"/><path d="M131.39,6a1,1,0,1,1,0,1.91,1,1,0,1,1,0-1.91Zm-.91,2.37h1.81v5.39h-1.81Z" fill="#231f20"/><path d="M135,13.18v2.47h-1.81V8.36H135v.51a2,2,0,0,1,1.48-.68c1.32,0,2.28.89,2.28,2.81s-1,2.88-2.31,2.88A1.72,1.72,0,0,1,135,13.18ZM137,11c0-1.07-.56-1.39-1-1.39a1.13,1.13,0,0,0-.9.37v2.13a1.19,1.19,0,0,0,.9.35C136.41,12.46,137,12.07,137,11Z" fill="#231f20"/><path d="M145.73,13.5a3.44,3.44,0,0,1-1.61.34,2.67,2.67,0,0,1-2.89-2.77,2.77,2.77,0,0,1,3-2.84,3.7,3.7,0,0,1,1.53.28l-.45,1.4a2.22,2.22,0,0,0-1-.21,1.2,1.2,0,0,0-1.24,1.35,1.19,1.19,0,0,0,1.24,1.33,2.58,2.58,0,0,0,1-.22Z" fill="#231f20"/><path d="M148.85,13.9A2.68,2.68,0,0,1,146,11.09a2.81,2.81,0,1,1,5.63,0A2.68,2.68,0,0,1,148.85,13.9Zm0-1.41c.51,0,1-.35,1-1.42s-.48-1.47-1-1.47-1,.41-1,1.47S148.36,12.49,148.85,12.49Z" fill="#231f20"/><path d="M155.8,13.2a2,2,0,0,1-1.48.68C153,13.87,152,13,152,11.07s1-2.88,2.31-2.88a1.72,1.72,0,0,1,1.45.7V6h1.81v7.79H155.8Zm0-1.11V10a1.19,1.19,0,0,0-.9-.35c-.47,0-1,.39-1,1.46s.56,1.39,1,1.39A1.14,1.14,0,0,0,155.8,12.09Z" fill="#231f20"/><path d="M161.3,13.84c-1.67,0-3-.8-3-2.86a2.63,2.63,0,0,1,2.7-2.8,2.27,2.27,0,0,1,2.39,2.55v.76h-3.23c.13.64.56.94,1.44.94a3.53,3.53,0,0,0,1.37-.32l.27,1.29A3.86,3.86,0,0,1,161.3,13.84Zm-1.19-3.46h1.55c0-.59-.24-.92-.72-.92S160.19,9.84,160.11,10.39Z" fill="#231f20"/><path d="M167.77,10.47a7,7,0,0,0,1.47,4.39v.09h-1.5a6.48,6.48,0,0,1-1.7-4.48A6.5,6.5,0,0,1,167.74,6h1.5V6A7.69,7.69,0,0,0,167.77,10.47Z" fill="#231f20"/><path d="M172.29,7.69c-.48,0-.87.15-.87.58s.83.64,1.57,1a2.33,2.33,0,0,1,1.66,2.19c0,1.56-1.06,2.46-2.78,2.46a3.8,3.8,0,0,1-2.38-.65l.51-1.52a3,3,0,0,0,1.82.59c.72,0,1-.23,1-.62,0-.62-.66-.74-1.45-1.08a2.38,2.38,0,0,1-1.72-2.15c0-1.4.93-2.31,2.63-2.31a4,4,0,0,1,2.11.52L174,8.14A3.46,3.46,0,0,0,172.29,7.69Z" fill="#231f20"/><path d="M178.19,13.84c-1.67,0-3-.8-3-2.86a2.63,2.63,0,0,1,2.7-2.8,2.27,2.27,0,0,1,2.39,2.55v.76H177c.13.64.56.94,1.44.94a3.53,3.53,0,0,0,1.37-.32l.27,1.29A3.86,3.86,0,0,1,178.19,13.84ZM177,10.39h1.55c0-.59-.24-.92-.72-.92S177.08,9.84,177,10.39Z" fill="#231f20"/><path d="M182.71,13.18v2.47H180.9V8.36h1.81v.51a2,2,0,0,1,1.48-.68c1.32,0,2.28.89,2.28,2.81s-1,2.88-2.31,2.88A1.72,1.72,0,0,1,182.71,13.18ZM184.64,11c0-1.07-.56-1.39-1-1.39a1.13,1.13,0,0,0-.9.37v2.13a1.19,1.19,0,0,0,.9.35C184.08,12.46,184.64,12.07,184.64,11Z" fill="#231f20"/><path d="M187.31,11.92V9.63h-.57V8.36h.57V6.67h1.81V8.36h1V9.63h-1V11.8c0,.51.3.65.61.65a1.3,1.3,0,0,0,.41-.07v1.35a2.9,2.9,0,0,1-.82.09A1.76,1.76,0,0,1,187.31,11.92Z" fill="#231f20"/><path d="M191.63,11.83a1,1,0,1,1,0,2,1,1,0,1,1,0-2Z" fill="#231f20"/><path d="M195.13,13.75v-1.1l2-2.24a3,3,0,0,0,.9-1.77.93.93,0,0,0-1.07-1,2.42,2.42,0,0,0-1.41.38l-.43-1.39a3.88,3.88,0,0,1,2.08-.52c1.72,0,2.56.91,2.56,2.29,0,1-.42,1.81-1.6,3l-.82.86h2.38v1.41Z" fill="#231f20"/><path d="M203.55,13.92c-1.58,0-3.08-1-3.08-3.87S202,6.1,203.55,6.1s3.09,1.14,3.09,3.95S205.14,13.92,203.55,13.92Zm0-1.48c.71,0,1.17-.66,1.17-2.41s-.46-2.45-1.17-2.45-1.16.69-1.16,2.45S202.85,12.44,203.55,12.44Z" fill="#231f20"/><path d="M208.44,8.25l-1.18.85V7.55l1.92-1.35h1.14v7.55h-1.88Z" fill="#231f20"/><path d="M211.16,13.48l.43-1.39a2.88,2.88,0,0,0,1.29.3c.78,0,1.27-.39,1.27-1.14s-.49-1.1-1.39-1.1a2.84,2.84,0,0,0-1,.16l0,0,.45-4h3.6V7.7h-2.26l-.14,1.17c1.72,0,2.64,1,2.64,2.38a2.59,2.59,0,0,1-2.91,2.67A3.93,3.93,0,0,1,211.16,13.48Z" fill="#231f20"/><path d="M218.64,11.25V10h2.83v1.28Z" fill="#231f20"/><path d="M226.89,7.69c-.48,0-.87.15-.87.58s.83.64,1.57,1a2.33,2.33,0,0,1,1.66,2.19c0,1.56-1.06,2.46-2.78,2.46a3.8,3.8,0,0,1-2.38-.65l.51-1.52a3,3,0,0,0,1.82.59c.72,0,1-.23,1-.62,0-.62-.66-.74-1.45-1.08a2.38,2.38,0,0,1-1.72-2.15c0-1.4.93-2.31,2.63-2.31a4,4,0,0,1,2.11.52l-.46,1.48A3.46,3.46,0,0,0,226.89,7.69Z" fill="#231f20"/><path d="M232.79,13.84c-1.67,0-3-.8-3-2.86a2.63,2.63,0,0,1,2.7-2.8,2.27,2.27,0,0,1,2.39,2.55v.76h-3.23c.13.64.56.94,1.44.94a3.53,3.53,0,0,0,1.37-.32l.27,1.29A3.86,3.86,0,0,1,232.79,13.84Zm-1.19-3.46h1.55c0-.59-.24-.92-.72-.92S231.68,9.84,231.6,10.39Z" fill="#231f20"/><path d="M237.31,13.18v2.47H235.5V8.36h1.81v.51a2,2,0,0,1,1.48-.68c1.32,0,2.28.89,2.28,2.81s-1,2.88-2.31,2.88A1.72,1.72,0,0,1,237.31,13.18ZM239.24,11c0-1.07-.56-1.39-1-1.39a1.13,1.13,0,0,0-.9.37v2.13a1.19,1.19,0,0,0,.9.35C238.68,12.46,239.24,12.07,239.24,11Z" fill="#231f20"/><path d="M241.91,11.92V9.63h-.57V8.36h.57V6.67h1.81V8.36h1V9.63h-1V11.8c0,.51.3.65.61.65a1.3,1.3,0,0,0,.41-.07v1.35a2.9,2.9,0,0,1-.82.09A1.76,1.76,0,0,1,241.91,11.92Z" fill="#231f20"/><path d="M246.23,11.83a1,1,0,1,1,0,2,1,1,0,1,1,0-2Z" fill="#231f20"/><path d="M249.73,13.75v-1.1l2-2.24a3,3,0,0,0,.9-1.77.93.93,0,0,0-1.07-1,2.42,2.42,0,0,0-1.41.38l-.43-1.39a3.88,3.88,0,0,1,2.08-.52c1.72,0,2.56.91,2.56,2.29,0,1-.42,1.81-1.6,3l-.82.86h2.38v1.41Z" fill="#231f20"/><path d="M258.15,13.92c-1.58,0-3.08-1-3.08-3.87s1.5-3.95,3.08-3.95,3.09,1.14,3.09,3.95S259.74,13.92,258.15,13.92Zm0-1.48c.71,0,1.17-.66,1.17-2.41s-.46-2.45-1.17-2.45S257,8.27,257,10,257.45,12.44,258.15,12.44Z" fill="#231f20"/><path d="M263,8.25l-1.18.85V7.55l1.92-1.35h1.14v7.55H263Z" fill="#231f20"/><path d="M266,10.65a5.35,5.35,0,0,1,2.65-4.39h2.07v.09a7.3,7.3,0,0,0-2.64,2.92,1.87,1.87,0,0,1,1.23-.48,2.17,2.17,0,0,1,2.22,2.42,2.54,2.54,0,0,1-2.66,2.69C267.06,13.9,266,12.71,266,10.65Zm3.73.55c0-.82-.41-1.15-1-1.15a1.25,1.25,0,0,0-.95.42,2.37,2.37,0,0,0,0,.27c0,1.2.43,1.75,1,1.75S269.71,12.07,269.71,11.2Z" fill="#231f20"/><path d="M271.8,6h1.5a6.5,6.5,0,0,1,1.7,4.51,6.48,6.48,0,0,1-1.7,4.48h-1.5v-.09a7,7,0,0,0,1.47-4.39A7.69,7.69,0,0,0,271.8,6Z" fill="#231f20"/><rect x="136.65" y="21.27" width="25.49" height="11.39" fill="#df65b0"/><rect x="111.42" y="21.27" width="25.49" height="11.39" fill="#d7b5d8"/><rect x="86.19" y="21.27" width="25.49" height="11.39" fill="#f1eef6"/><rect x="161" y="21.27" width="25.49" height="11.39" fill="#dd1c77"/><rect x="186.23" y="21.27" width="25.49" height="11.39" fill="#980043"/><line x1="86.19" y1="21.27" x2="86.19" y2="39.77" fill="none" stroke="#666" stroke-linecap="round" stroke-linejoin="round" stroke-width="0.7"/><line x1="111.81" y1="21.27" x2="111.81" y2="39.77" fill="none" stroke="#666" stroke-linecap="round" stroke-linejoin="round" stroke-width="0.7"/><line x1="137.42" y1="21.27" x2="137.42" y2="39.77" fill="none" stroke="#666" stroke-linecap="round" stroke-linejoin="round" stroke-width="0.7"/><line x1="161" y1="21.27" x2="161" y2="39.77" fill="none" stroke="#666" stroke-linecap="round" stroke-linejoin="round" stroke-width="0.7"/><line x1="185.74" y1="21.27" x2="185.74" y2="39.77" fill="none" stroke="#666" stroke-linecap="round" stroke-linejoin="round" stroke-width="0.7"/><line x1="211.43" y1="21.27" x2="211.43" y2="39.77" fill="none" stroke="#666" stroke-linecap="round" stroke-linejoin="round" stroke-width="0.7"/><path d="M86.35,49c-1.15,0-2.2-.86-2.2-3s1.05-3,2.2-3,2.21.93,2.2,3S87.5,49,86.35,49Zm0-.65c.78,0,1.36-.73,1.36-2.32s-.58-2.37-1.36-2.37S85,44.44,85,46,85.58,48.36,86.35,48.36Z" fill="#656565"/><path d="M104.88,46.57A4,4,0,0,1,107,43.13h1v0a4.48,4.48,0,0,0-2.23,2.67,1.73,1.73,0,0,1,1.32-.6A1.65,1.65,0,0,1,108.74,47a1.81,1.81,0,0,1-1.83,2C105.65,49,104.88,48.1,104.88,46.57ZM108,47a1.06,1.06,0,0,0-1.1-1.2,1.45,1.45,0,0,0-1.18.59,1.56,1.56,0,0,0,0,.2c0,1.14.47,1.77,1.21,1.77S108,47.85,108,47Z" fill="#656565"/><path d="M111.7,49c-1.15,0-2.2-.86-2.2-3s1.05-3,2.2-3,2.21.93,2.2,3S112.85,49,111.7,49Zm0-.65c.78,0,1.36-.73,1.36-2.32s-.58-2.37-1.36-2.37-1.34.77-1.35,2.37S110.93,48.36,111.7,48.36Z" fill="#656565"/><path d="M116.9,49c-1.15,0-2.2-.86-2.2-3s1.05-3,2.2-3,2.21.93,2.2,3S118.05,49,116.9,49Zm0-.65c.78,0,1.36-.73,1.36-2.32s-.58-2.37-1.36-2.37-1.34.77-1.35,2.37S116.13,48.36,116.9,48.36Z" fill="#656565"/><path d="M133.75,48.89v-.48l1.65-1.87a2.79,2.79,0,0,0,.88-1.78,1,1,0,0,0-1.09-1.06,2,2,0,0,0-1.18.36l-.21-.61a2.55,2.55,0,0,1,1.48-.41,1.58,1.58,0,0,1,1.79,1.65A3.57,3.57,0,0,1,135.83,47l-1.12,1.24h2.38v.63Z" fill="#656565"/><path d="M138.07,42.85h.79v6h-.79Zm.83,3.95,1.71-2.05h.78l-1.66,2,1.78,2.17h-.9Z" fill="#656565"/><path d="M157.72,47.45c0-.79.66-1.27,1.4-1.52-.69-.31-1.2-.7-1.2-1.44s.67-1.45,1.77-1.45,1.77.61,1.77,1.42-.51,1.08-1.19,1.36c.8.34,1.39.79,1.39,1.57,0,1-.78,1.62-2,1.62S157.72,48.37,157.72,47.45Zm3.15,0c0-.57-.45-.88-1.24-1.21-.62.26-1.13.62-1.13,1.2s.43,1,1.2,1S160.87,48,160.87,47.42Zm-1.13-1.91c.57-.26,1-.5,1-1s-.35-.85-1-.85-1,.37-1,.86S159.14,45.25,159.74,45.5Z" fill="#656565"/><path d="M162.58,42.85h.79v6h-.79Zm.83,3.95,1.71-2.05h.78l-1.66,2L166,48.89h-.9Z" fill="#656565"/><path d="M180.48,48.61l.21-.62a2.18,2.18,0,0,0,1.25.33,1.06,1.06,0,0,0,1.18-1.07c0-.64-.38-1-1.23-1h-.31v-.65h.31c.72,0,1.14-.38,1.14-.95s-.37-.94-1.08-.94a2,2,0,0,0-1.07.31l-.21-.58A2.37,2.37,0,0,1,182,43c1.06,0,1.74.53,1.74,1.52a1.34,1.34,0,0,1-1,1.3,1.39,1.39,0,0,1,1.16,1.44A1.73,1.73,0,0,1,182,49,2.74,2.74,0,0,1,180.48,48.61Z" fill="#656565"/><path d="M185.8,44.14l-1.14,1v-.78l1.47-1.27h.5v5.81h-.82Z" fill="#656565"/><path d="M188,42.85h.79v6H188Zm.83,3.95,1.71-2.05h.78l-1.66,2,1.78,2.17h-.9Z" fill="#656565"/><path d="M204.85,44.14l-1.15,1v-.78l1.47-1.27h.5v5.81h-.82Z" fill="#656565"/><path d="M206.72,48.89v-.48l1.65-1.87a2.79,2.79,0,0,0,.88-1.78,1,1,0,0,0-1.09-1.06,2,2,0,0,0-1.18.36l-.21-.61a2.55,2.55,0,0,1,1.48-.41A1.58,1.58,0,0,1,210,44.69,3.57,3.57,0,0,1,208.8,47l-1.12,1.24h2.38v.63Z" fill="#656565"/><path d="M213,49c-1.15,0-2.2-.86-2.2-3s1.05-3,2.2-3,2.21.93,2.2,3S214.2,49,213,49Zm0-.65c.78,0,1.36-.73,1.36-2.32s-.58-2.37-1.36-2.37-1.34.77-1.35,2.37S212.27,48.36,213,48.36Z" fill="#656565"/><path d="M216.24,42.85H217v6h-.79Zm.83,3.95,1.71-2.05h.78l-1.66,2,1.78,2.17h-.9Z" fill="#656565"/></g></svg>