<svg xmlns="http://www.w3.org/2000/svg" viewBox="0 0 300 53"><title>map-legend</title><g id="Work_area" data-name="Work area"><rect x="132.31" y="23.17" width="17.91" height="8" fill="#c994c7"/><rect x="114.58" y="23.17" width="17.91" height="8" fill="#d4b9da"/><rect x="96.85" y="23.17" width="17.91" height="8" fill="#f1eef6"/><rect x="149.41" y="23.17" width="17.91" height="8" fill="#df65b0"/><rect x="167.14" y="23.17" width="17.91" height="8" fill="#e7298a"/><rect x="184.87" y="23.17" width="17.91" height="8" fill="#ce1256"/><rect x="202.78" y="23.17" width="17.91" height="8" fill="#91003f"/><line x1="96.85" y1="23.17" x2="96.85" y2="36.17" fill="none" stroke="#666" stroke-linecap="round" stroke-linejoin="round" stroke-width="0.7"/><line x1="220.97" y1="23.17" x2="220.97" y2="36.17" fill="none" stroke="#666" stroke-linecap="round" stroke-linejoin="round" stroke-width="0.7"/><path d="M95,44.41l.23-.65a2.3,2.3,0,0,0,1.31.35A1.12,1.12,0,0,0,97.81,43c0-.68-.41-1.09-1.3-1.09h-.32v-.68h.32c.76,0,1.2-.41,1.2-1s-.39-1-1.13-1a2.1,2.1,0,0,0-1.13.32l-.23-.61a2.5,2.5,0,0,1,1.44-.4c1.12,0,1.84.56,1.84,1.6a1.41,1.41,0,0,1-1.09,1.37A1.46,1.46,0,0,1,98.64,43a1.83,1.83,0,0,1-2,1.79A2.89,2.89,0,0,1,95,44.41Z" fill="#656565"/><path d="M209.55,39.7l-1.21,1v-.82l1.55-1.34h.52V44.7h-.86Z" fill="#656565"/><path d="M212.86,39.7l-1.21,1v-.82l1.55-1.34h.52V44.7h-.86Z" fill="#656565"/><path d="M215.75,44.65a4.84,4.84,0,0,0,2.3-2.8,1.84,1.84,0,0,1-1.38.61,1.73,1.73,0,0,1-1.76-1.88,1.93,1.93,0,0,1,2-2.07c1.27,0,2.06.95,2.06,2.56a4.5,4.5,0,0,1-2.08,3.63h-1.13Zm2.39-3.41a1.55,1.55,0,0,0,0-.21c0-1.21-.48-1.86-1.25-1.86s-1.15.54-1.15,1.42a1.12,1.12,0,0,0,1.16,1.27A1.53,1.53,0,0,0,218.13,41.24Z" fill="#656565"/><path d="M219.27,45.52a2.35,2.35,0,0,0,.5-.78.48.48,0,0,1-.43-.49.49.49,0,0,1,.5-.5.52.52,0,0,1,.53.59,2.27,2.27,0,0,1-.74,1.43Z" fill="#656565"/><path d="M221.06,42.26a4.2,4.2,0,0,1,2.26-3.63h1v0A4.72,4.72,0,0,0,222,41.48a1.82,1.82,0,0,1,1.39-.63,1.73,1.73,0,0,1,1.76,1.89,1.9,1.9,0,0,1-1.93,2.07C221.87,44.81,221.06,43.87,221.06,42.26Zm3.23.48a1.12,1.12,0,0,0-1.16-1.27,1.53,1.53,0,0,0-1.24.62,1.64,1.64,0,0,0,0,.21c0,1.21.5,1.86,1.28,1.86S224.29,43.61,224.29,42.73Z" fill="#656565"/><path d="M226.64,44.65a4.85,4.85,0,0,0,2.3-2.8,1.84,1.84,0,0,1-1.38.61,1.73,1.73,0,0,1-1.76-1.88,1.93,1.93,0,0,1,2-2.07c1.27,0,2.06.95,2.06,2.56a4.5,4.5,0,0,1-2.08,3.63h-1.13ZM229,41.24a1.55,1.55,0,0,0,0-.21c0-1.21-.48-1.86-1.25-1.86s-1.15.54-1.15,1.42a1.12,1.12,0,0,0,1.16,1.27A1.53,1.53,0,0,0,229,41.24Z" fill="#656565"/><path d="M230.43,44.41l.23-.64a2.48,2.48,0,0,0,1.32.34,1.28,1.28,0,0,0,1.35-1.36c0-.9-.59-1.31-1.57-1.31a2.31,2.31,0,0,0-.81.11l0,0,.37-2.9H234v.68h-2.07l-.2,1.48c1.59-.12,2.44.73,2.44,2A2,2,0,0,1,232,44.82,2.91,2.91,0,0,1,230.43,44.41Z" fill="#656565"/><path d="M33.82,7.71h-1.9V6.26h5.73V7.71h-1.9v6H33.82Z" fill="#231f20"/><path d="M40.21,13.9a2.68,2.68,0,0,1-2.81-2.81,2.81,2.81,0,1,1,5.63,0A2.68,2.68,0,0,1,40.21,13.9Zm0-1.41c.51,0,1-.35,1-1.42s-.48-1.47-1-1.47-1,.41-1,1.47S39.72,12.49,40.21,12.49Z" fill="#231f20"/><path d="M43.87,11.92V9.63H43.3V8.36h.57V6.67h1.81V8.36h1V9.63h-1V11.8c0,.51.3.65.61.65a1.3,1.3,0,0,0,.41-.07v1.35a2.9,2.9,0,0,1-.82.09A1.76,1.76,0,0,1,43.87,11.92Z" fill="#231f20"/><path d="M50,13.29a1.49,1.49,0,0,1-1.22.57,1.59,1.59,0,0,1-1.65-1.72A1.85,1.85,0,0,1,50,10.72v-.24c0-.71-.48-.88-1-.88a2.83,2.83,0,0,0-1.2.29l-.36-1.28a4.22,4.22,0,0,1,2-.42c1.8,0,2.45.85,2.45,2.2v3.36H50Zm0-.77v-.92a1,1,0,0,0-.57-.18.57.57,0,0,0-.6.64.57.57,0,0,0,.6.64A1,1,0,0,0,50,12.53Z" fill="#231f20"/><path d="M52.77,6h1.81v7.79H52.77Z" fill="#231f20"/><path d="M59.7,15.77c-1.68,0-2.6-.4-2.6-1.22,0-.44.39-.75.85-.95a1.06,1.06,0,0,1-.44-.87,1.31,1.31,0,0,1,.81-1.23,1.64,1.64,0,0,1-.84-1.45,2,2,0,0,1,2.23-1.87,2.4,2.4,0,0,1,1.42.42A2.28,2.28,0,0,1,62.6,8.2V9.44a4,4,0,0,0-.83,0,1.36,1.36,0,0,1,.12.61c0,1.14-1,1.76-2.18,1.76a3.2,3.2,0,0,1-.63-.06.35.35,0,0,0-.15.28c0,.17.13.26.41.26h1.51A1.55,1.55,0,0,1,62.6,13.9C62.6,15.18,61.51,15.77,59.7,15.77Zm1.21-1.56c0-.2-.11-.41-.54-.41H58.74a.47.47,0,0,0-.22.39c0,.3.33.49,1.14.49C60.64,14.68,60.91,14.5,60.91,14.21Zm-1.22-3.41c.3,0,.61-.16.61-.76s-.31-.79-.61-.79-.61.2-.62.79S59.39,10.81,59.69,10.81Z" fill="#231f20"/><path d="M66.37,13.15a1.68,1.68,0,0,1-1.46.77A1.72,1.72,0,0,1,63.15,12V8.36h1.8v3.42c0,.51.2.71.67.71a.94.94,0,0,0,.76-.39V8.36h1.81v5.39H66.37Z" fill="#231f20"/><path d="M71.88,13.84c-1.67,0-3-.8-3-2.86a2.63,2.63,0,0,1,2.7-2.8,2.27,2.27,0,0,1,2.39,2.55v.76H70.7c.13.64.56.94,1.44.94a3.53,3.53,0,0,0,1.37-.32l.27,1.29A3.86,3.86,0,0,1,71.88,13.84Zm-1.19-3.46h1.55c0-.59-.24-.92-.72-.92S70.77,9.84,70.69,10.39Z" fill="#231f20"/><path d="M76.61,9.51c-.37,0-.66.08-.66.35s.89.34,1.64.71A1.44,1.44,0,0,1,78.43,12c0,1.22-.91,1.86-2.26,1.86a3.73,3.73,0,0,1-1.9-.4l.36-1.26a3.08,3.08,0,0,0,1.38.35c.52,0,.74-.16.74-.39,0-.42-1.15-.32-1.84-.87A1.53,1.53,0,0,1,74.37,10c0-1.2.86-1.79,2.14-1.79a4.18,4.18,0,0,1,1.79.34L78,9.82A3.36,3.36,0,0,0,76.61,9.51Z" fill="#231f20"/><path d="M79.29,11.92V9.63h-.57V8.36h.57V6.67H81.1V8.36h1V9.63h-1V11.8c0,.51.3.65.61.65a1.3,1.3,0,0,0,.41-.07v1.35a2.9,2.9,0,0,1-.82.09A1.76,1.76,0,0,1,79.29,11.92Z" fill="#231f20"/><path d="M87.42,13.29a1.49,1.49,0,0,1-1.22.57,1.59,1.59,0,0,1-1.65-1.72,1.85,1.85,0,0,1,2.87-1.43v-.24c0-.71-.48-.88-1-.88a2.83,2.83,0,0,0-1.2.29l-.36-1.28a4.22,4.22,0,0,1,2-.42c1.8,0,2.45.85,2.45,2.2v3.36H87.42Zm0-.77v-.92a1,1,0,0,0-.57-.18.57.57,0,0,0-.6.64.57.57,0,0,0,.6.64A1,1,0,0,0,87.42,12.53Z" fill="#231f20"/><path d="M90.12,13.75V8.36h1.81v1A2.25,2.25,0,0,1,93.7,8.28v1.79a2.3,2.3,0,0,0-1.77.44v3.24Z" fill="#231f20"/><path d="M94.31,13.75V8.36h1.81v1a2.25,2.25,0,0,1,1.77-1.09v1.79a2.3,2.3,0,0,0-1.77.44v3.24Z" fill="#231f20"/><path d="M99.41,6a1,1,0,1,1,0,1.91,1,1,0,1,1,0-1.91ZM98.5,8.36h1.81v5.39H98.5Z" fill="#231f20"/><path d="M100.77,8.36h1.84l1,2.87,1-2.87h1.62l-2.09,5.45h-1.37Z" fill="#231f20"/><path d="M109.26,13.29a1.49,1.49,0,0,1-1.22.57,1.59,1.59,0,0,1-1.65-1.72,1.85,1.85,0,0,1,2.87-1.43v-.24c0-.71-.48-.88-1-.88a2.83,2.83,0,0,0-1.2.29l-.36-1.28a4.22,4.22,0,0,1,2-.42c1.8,0,2.45.85,2.45,2.2v3.36h-1.81Zm0-.77v-.92a1,1,0,0,0-.57-.18.57.57,0,0,0-.6.64.57.57,0,0,0,.6.64A1,1,0,0,0,109.26,12.53Z" fill="#231f20"/><path d="M112,6h1.81v7.79H112Z" fill="#231f20"/><path d="M116.8,9.51c-.37,0-.66.08-.66.35s.89.34,1.64.71a1.44,1.44,0,0,1,.84,1.45c0,1.22-.91,1.86-2.26,1.86a3.73,3.73,0,0,1-1.9-.4l.36-1.26a3.08,3.08,0,0,0,1.38.35c.52,0,.74-.16.74-.39,0-.42-1.15-.32-1.84-.87a1.53,1.53,0,0,1-.54-1.27c0-1.2.86-1.79,2.14-1.79a4.18,4.18,0,0,1,1.79.34l-.34,1.23A3.36,3.36,0,0,0,116.8,9.51Z" fill="#231f20"/><path d="M123.08,13.18v.57h-1.81V6h1.81V8.87a2,2,0,0,1,1.48-.68c1.32,0,2.28.89,2.28,2.81s-1,2.88-2.31,2.88A1.72,1.72,0,0,1,123.08,13.18ZM125,11c0-1.07-.56-1.39-1-1.39a1.13,1.13,0,0,0-.9.37v2.13a1.19,1.19,0,0,0,.9.35C124.45,12.46,125,12.07,125,11Z" fill="#231f20"/><path d="M128.74,13.24l-1.93-4.88h1.85l1,2.64,1.06-2.64h1.65l-2.93,7.29h-1.64Z" fill="#231f20"/><path d="M134.55,13l2.22-3.36H134.7V8.36h4.16V9.2l-2.24,3.38h2.23v1.17h-4.3Z" fill="#231f20"/><path d="M140.88,6a1,1,0,1,1,0,1.91,1,1,0,1,1,0-1.91ZM140,8.36h1.81v5.39H140Z" fill="#231f20"/><path d="M144.53,13.18v2.47h-1.81V8.36h1.81v.51A2,2,0,0,1,146,8.19c1.32,0,2.28.89,2.28,2.81s-1,2.88-2.31,2.88A1.72,1.72,0,0,1,144.53,13.18ZM146.46,11c0-1.07-.56-1.39-1-1.39a1.13,1.13,0,0,0-.9.37v2.13a1.19,1.19,0,0,0,.9.35C145.9,12.46,146.46,12.07,146.46,11Z" fill="#231f20"/><path d="M155.22,13.5a3.44,3.44,0,0,1-1.61.34,2.67,2.67,0,0,1-2.89-2.77,2.77,2.77,0,0,1,3-2.84,3.7,3.7,0,0,1,1.53.28l-.45,1.4a2.22,2.22,0,0,0-1-.21,1.2,1.2,0,0,0-1.24,1.35,1.19,1.19,0,0,0,1.24,1.33,2.58,2.58,0,0,0,1-.22Z" fill="#231f20"/><path d="M158.34,13.9a2.68,2.68,0,0,1-2.81-2.81,2.81,2.81,0,1,1,5.63,0A2.68,2.68,0,0,1,158.34,13.9Zm0-1.41c.51,0,1-.35,1-1.42s-.48-1.47-1-1.47-1,.41-1,1.47S157.85,12.49,158.34,12.49Z" fill="#231f20"/><path d="M165.29,13.2a2,2,0,0,1-1.48.68c-1.32,0-2.28-.89-2.28-2.81s1-2.88,2.31-2.88a1.72,1.72,0,0,1,1.45.7V6h1.81v7.79h-1.81Zm0-1.11V10a1.19,1.19,0,0,0-.9-.35c-.47,0-1,.39-1,1.46s.56,1.39,1,1.39A1.14,1.14,0,0,0,165.29,12.09Z" fill="#231f20"/><path d="M170.79,13.84c-1.67,0-3-.8-3-2.86a2.63,2.63,0,0,1,2.7-2.8,2.27,2.27,0,0,1,2.39,2.55v.76h-3.23c.13.64.56.94,1.44.94a3.53,3.53,0,0,0,1.37-.32l.27,1.29A3.86,3.86,0,0,1,170.79,13.84Zm-1.19-3.46h1.55c0-.59-.24-.92-.72-.92S169.68,9.84,169.6,10.39Z" fill="#231f20"/><path d="M177.26,10.47a7,7,0,0,0,1.47,4.39v.09h-1.5a6.48,6.48,0,0,1-1.7-4.48A6.5,6.5,0,0,1,177.23,6h1.5V6A7.69,7.69,0,0,0,177.26,10.47Z" fill="#231f20"/><path d="M181.78,7.69c-.48,0-.87.15-.87.58s.83.64,1.57,1a2.33,2.33,0,0,1,1.66,2.19c0,1.56-1.06,2.46-2.78,2.46a3.8,3.8,0,0,1-2.38-.65l.51-1.52a3,3,0,0,0,1.82.59c.72,0,1-.23,1-.62,0-.62-.66-.74-1.45-1.08a2.38,2.38,0,0,1-1.72-2.15c0-1.4.93-2.31,2.63-2.31a4,4,0,0,1,2.11.52l-.46,1.48A3.46,3.46,0,0,0,181.78,7.69Z" fill="#231f20"/><path d="M187.68,13.84c-1.67,0-3-.8-3-2.86a2.63,2.63,0,0,1,2.7-2.8,2.27,2.27,0,0,1,2.39,2.55v.76H186.5c.13.64.56.94,1.44.94a3.53,3.53,0,0,0,1.37-.32l.27,1.29A3.86,3.86,0,0,1,187.68,13.84Zm-1.19-3.46H188c0-.59-.24-.92-.72-.92S186.57,9.84,186.49,10.39Z" fill="#231f20"/><path d="M192.2,13.18v2.47h-1.81V8.36h1.81v.51a2,2,0,0,1,1.48-.68C195,8.19,196,9.08,196,11s-1,2.88-2.31,2.88A1.72,1.72,0,0,1,192.2,13.18ZM194.13,11c0-1.07-.56-1.39-1-1.39a1.13,1.13,0,0,0-.9.37v2.13a1.19,1.19,0,0,0,.9.35C193.57,12.46,194.13,12.07,194.13,11Z" fill="#231f20"/><path d="M196.8,11.92V9.63h-.57V8.36h.57V6.67h1.81V8.36h1V9.63h-1V11.8c0,.51.3.65.61.65a1.3,1.3,0,0,0,.41-.07v1.35a2.9,2.9,0,0,1-.82.09A1.76,1.76,0,0,1,196.8,11.92Z" fill="#231f20"/><path d="M201.12,11.83a1,1,0,1,1,0,2,1,1,0,1,1,0-2Z" fill="#231f20"/><path d="M204.62,13.75v-1.1l2-2.24a3,3,0,0,0,.9-1.77.93.93,0,0,0-1.07-1A2.42,2.42,0,0,0,205,8l-.43-1.39a3.88,3.88,0,0,1,2.08-.52c1.72,0,2.56.91,2.56,2.29,0,1-.42,1.81-1.6,3l-.82.86h2.38v1.41Z" fill="#231f20"/><path d="M213,13.92c-1.58,0-3.08-1-3.08-3.87S211.46,6.1,213,6.1s3.09,1.14,3.09,3.95S214.63,13.92,213,13.92Zm0-1.48c.71,0,1.17-.66,1.17-2.41s-.46-2.45-1.17-2.45-1.16.69-1.16,2.45S212.34,12.44,213,12.44Z" fill="#231f20"/><path d="M217.93,8.25l-1.18.85V7.55l1.92-1.35h1.14v7.55h-1.88Z" fill="#231f20"/><path d="M220.65,13.48l.43-1.39a2.88,2.88,0,0,0,1.29.3c.78,0,1.27-.39,1.27-1.14s-.49-1.1-1.39-1.1a2.84,2.84,0,0,0-1,.16l0,0,.45-4h3.6V7.7H223l-.14,1.17c1.72,0,2.64,1,2.64,2.38a2.59,2.59,0,0,1-2.91,2.67A3.93,3.93,0,0,1,220.65,13.48Z" fill="#231f20"/><path d="M228.13,11.25V10H231v1.28Z" fill="#231f20"/><path d="M236.38,7.69c-.48,0-.87.15-.87.58s.83.64,1.57,1a2.33,2.33,0,0,1,1.66,2.19c0,1.56-1.06,2.46-2.78,2.46a3.8,3.8,0,0,1-2.38-.65l.51-1.52a3,3,0,0,0,1.82.59c.72,0,1-.23,1-.62,0-.62-.66-.74-1.45-1.08a2.38,2.38,0,0,1-1.72-2.15c0-1.4.93-2.31,2.63-2.31a4,4,0,0,1,2.11.52l-.46,1.48A3.46,3.46,0,0,0,236.38,7.69Z" fill="#231f20"/><path d="M242.28,13.84c-1.67,0-3-.8-3-2.86a2.63,2.63,0,0,1,2.7-2.8,2.27,2.27,0,0,1,2.39,2.55v.76H241.1c.13.64.56.94,1.44.94a3.53,3.53,0,0,0,1.37-.32l.27,1.29A3.86,3.86,0,0,1,242.28,13.84Zm-1.19-3.46h1.55c0-.59-.24-.92-.72-.92S241.17,9.84,241.09,10.39Z" fill="#231f20"/><path d="M246.8,13.18v2.47H245V8.36h1.81v.51a2,2,0,0,1,1.48-.68c1.32,0,2.28.89,2.28,2.81s-1,2.88-2.31,2.88A1.72,1.72,0,0,1,246.8,13.18ZM248.73,11c0-1.07-.56-1.39-1-1.39a1.13,1.13,0,0,0-.9.37v2.13a1.19,1.19,0,0,0,.9.35C248.17,12.46,248.73,12.07,248.73,11Z" fill="#231f20"/><path d="M251.4,11.92V9.63h-.57V8.36h.57V6.67h1.81V8.36h1V9.63h-1V11.8c0,.51.3.65.61.65a1.3,1.3,0,0,0,.41-.07v1.35a2.9,2.9,0,0,1-.82.09A1.76,1.76,0,0,1,251.4,11.92Z" fill="#231f20"/><path d="M255.72,11.83a1,1,0,1,1,0,2,1,1,0,1,1,0-2Z" fill="#231f20"/><path d="M259.22,13.75v-1.1l2-2.24a3,3,0,0,0,.9-1.77.93.93,0,0,0-1.07-1,2.42,2.42,0,0,0-1.41.38l-.43-1.39a3.88,3.88,0,0,1,2.08-.52c1.72,0,2.56.91,2.56,2.29,0,1-.42,1.81-1.6,3l-.82.86h2.38v1.41Z" fill="#231f20"/><path d="M267.64,13.92c-1.58,0-3.08-1-3.08-3.87s1.5-3.95,3.08-3.95,3.09,1.14,3.09,3.95S269.23,13.92,267.64,13.92Zm0-1.48c.71,0,1.17-.66,1.17-2.41s-.46-2.45-1.17-2.45-1.16.69-1.16,2.45S266.94,12.44,267.64,12.44Z" fill="#231f20"/><path d="M272.53,8.25l-1.18.85V7.55l1.92-1.35h1.14v7.55h-1.88Z" fill="#231f20"/><path d="M275.47,10.65a5.35,5.35,0,0,1,2.65-4.39h2.07v.09a7.31,7.31,0,0,0-2.64,2.92,1.87,1.87,0,0,1,1.23-.48A2.17,2.17,0,0,1,281,11.21a2.54,2.54,0,0,1-2.66,2.69C276.55,13.9,275.47,12.71,275.47,10.65Zm3.73.55c0-.82-.41-1.15-1-1.15a1.25,1.25,0,0,0-.95.42,2.26,2.26,0,0,0,0,.27c0,1.2.43,1.75,1,1.75S279.2,12.07,279.2,11.2Z" fill="#231f20"/><path d="M281.29,6h1.5a6.5,6.5,0,0,1,1.7,4.51,6.48,6.48,0,0,1-1.7,4.48h-1.5v-.09a7,7,0,0,0,1.47-4.39A7.69,7.69,0,0,0,281.29,6Z" fill="#231f20"/></g></svg>